<?xml version="1.0" encoding="iso-8859-1"?>
<!-- Generator: Adobe Illustrator 19.0.0, SVG Export Plug-In . SVG Version: 6.00 Build 0)  -->
<svg version="1.1" id="Layer_1" xmlns="http://www.w3.org/2000/svg" xmlns:xlink="http://www.w3.org/1999/xlink" x="0px" y="0px"
	 viewBox="0 0 511.038 511.038" style="enable-background:new 0 0 511.038 511.038;" xml:space="preserve" fill="#FFF">
<g>
	<g>
		<path d="M466.682,131.052C421.533,33.879,344.503-1.217,265.807,0.061c-2.821,0.037-5.191,0.03-10.602-0.018
			c-6.709-0.059-9.739-0.063-13.632,0.02C159.426,1.689,88.681,34.253,44.166,131.141c-16.403,35.67-23.012,76.088-22.855,124.474
			c0.115,35.718,27.6,132.014,44.952,159.995c6.124,9.876,18.995,12.992,28.954,7.119l9.361,49.3
			c4.929,25.954,30.089,43.092,56.043,38.163c25.953-4.929,43.091-30.089,38.162-56.043l-29.781-156.863
			c-4.929-25.956-30.09-43.071-56.043-38.142c-24.815,4.713-41.556,27.922-38.67,52.635c-5.97-23.102-10.275-44.846-10.312-56.302
			c-0.138-42.709,5.516-77.291,18.956-106.517c36.448-79.33,92.006-104.903,159.515-106.24c3.355-0.071,6.1-0.068,12.383-0.013
			c5.725,0.05,8.304,0.059,11.606,0.015c63.547-1.032,124.604,26.787,161.554,106.314c13.479,28.986,19.186,63.712,19.07,106.452
			c-0.028,10.889-9.582,36.466-22.213,64.154l0.846-4.456c4.929-25.954-12.209-51.114-38.163-56.042
			c-25.953-4.929-51.114,12.186-56.043,38.141l-29.782,156.865c-4.929,25.953,12.209,51.113,38.163,56.042
			c25.954,4.929,51.114-12.209,56.043-38.162l8.8-46.347c7.016-0.112,13.832-3.661,17.807-10.066
			c29.252-47.136,67.124-127.686,67.207-160.016C489.858,207.143,483.188,166.546,466.682,131.052z M120.92,301.062
			c2.81-0.534,5.634,1.387,6.165,4.184l29.781,156.863c0.532,2.8-1.398,5.633-4.205,6.166c-2.799,0.532-5.632-1.398-6.165-4.206
			l-29.781-156.842C116.183,304.428,118.113,301.595,120.92,301.062z M353.995,464.07c-0.533,2.807-3.366,4.737-6.165,4.205
			c-2.808-0.533-4.737-3.366-4.206-6.165l29.782-156.865c0.531-2.796,3.355-4.717,6.165-4.183c2.808,0.533,4.737,3.366,4.206,6.165
			L353.995,464.07z"/>
	</g>
</g>
<g>
</g>
<g>
</g>
<g>
</g>
<g>
</g>
<g>
</g>
<g>
</g>
<g>
</g>
<g>
</g>
<g>
</g>
<g>
</g>
<g>
</g>
<g>
</g>
<g>
</g>
<g>
</g>
<g>
</g>
</svg>
